<svg width="60" height="60" viewBox="0 0 60 60" fill="none" xmlns="http://www.w3.org/2000/svg">
<path d="M19.6722 30.5172L30.32 36.9827V49.9138L19.6722 56.3793L9.0243 49.9138V36.9827L19.6722 30.5172Z" fill="white"/>
<path d="M40.082 52.2415L43.2763 54.1811V58.0604L40.082 60.0001L36.8876 58.0604V54.1811L40.082 52.2415Z" fill="white"/>
<path d="M47.459 0L50.6534 1.93966V5.81897L47.459 7.75862L44.2647 5.81897V1.93966L47.459 0Z" fill="white"/>
<path d="M3.68852 22.7585L6.88288 24.6982V28.5775L3.68852 30.5172L0.494169 28.5775V24.6982L3.68852 22.7585Z" fill="white"/>
<path d="M23.1147 0L33.7626 6.46552V19.3966L23.1147 25.8621L12.4669 19.3966V6.46552L23.1147 0Z" fill="white"/>
<path d="M47.7049 17.5862L58.3528 24.0517V36.9827L47.7049 43.4482L37.0571 36.9827V24.0517L47.7049 17.5862Z" fill="white"/>
<line y1="-2.5" x2="11.8707" y2="-2.5" transform="matrix(0.939072 -0.343721 0.314152 0.949373 29.0164 40.2871)" stroke="white" stroke-width="5"/>
<line y1="-2.5" x2="14.0157" y2="-2.5" transform="matrix(0.807058 0.590472 -0.551678 0.834057 26.5574 17.5862)" stroke="white" stroke-width="5"/>
</svg>
